<svg version="1.2" xmlns="http://www.w3.org/2000/svg" viewBox="0 0 25 23" width="25" height="23">
	<title>image</title>
	<style>
		.s0 { fill: #ffffff } 
	</style>
	<path id="Layer" class="s0" d="m17.6 0.6q3.1 0 5.1 2.2 2.1 2.3 2.1 5.4 0 0.5-0.1 1.1 0 0.5-0.2 1h-7.6l-2.1-3.1q-0.1-0.2-0.4-0.4-0.3-0.1-0.6-0.1-0.4 0-0.7 0.2-0.3 0.3-0.5 0.6l-1.6 5-1.1-1.6q-0.1-0.3-0.4-0.4-0.3-0.2-0.6-0.2h-8.2q-0.2-0.5-0.2-1-0.1-0.6-0.1-1.1 0-3.1 2-5.4 2.1-2.2 5.1-2.2 1.5 0 2.8 0.5 1.3 0.6 2.3 1.7 1-1.1 2.3-1.7 1.3-0.5 2.7-0.5zm-5 21.9q-0.6 0-1.1-0.2-0.5-0.2-0.9-0.6l-8.1-8.2q-0.2-0.2-0.4-0.3-0.1-0.2-0.3-0.4h6.5l2 3.1q0.2 0.2 0.5 0.4 0.2 0.1 0.5 0.1 0.4 0 0.8-0.2 0.3-0.3 0.4-0.6l1.7-5 1 1.6q0.2 0.3 0.5 0.4 0.2 0.2 0.5 0.2h7.1l-0.3 0.3-0.3 0.4-8.2 8.2q-0.4 0.4-0.9 0.6-0.5 0.2-1 0.2z"/>
</svg>