<svg version="1.2" xmlns="http://www.w3.org/2000/svg" viewBox="0 0 13 12" width="13" height="12">
	<title>image</title>
	<style>
		.s0 { fill: #656f77 } 
	</style>
	<path id="Layer" fill-rule="evenodd" class="s0" d="m9.9 2.9c0.2 0 0.3 0.1 0.4 0.2l1.8 5.3c0.5 1.4-0.5 2.9-2.1 2.9h-7.8c-1.5 0-2.6-1.5-2.1-2.9l1.9-5.3c0-0.1 0.2-0.2 0.3-0.2h2q-0.3-0.4-0.3-0.9c0-1.1 1-2 2.1-2 1.2 0 2.1 0.9 2.1 2q0 0.5-0.2 0.9zm-3.8-0.1c0.2 0 0.7-0.2 0.7-0.8 0-0.6-0.5-0.8-0.7-0.8-0.2 0-0.7 0.2-0.7 0.8 0 0.6 0.5 0.8 0.7 0.8z"/>
</svg>